<svg width="64" height="70" viewBox="0 0 64 70" fill="none" xmlns="http://www.w3.org/2000/svg">
<path d="M61.7999 51.7883L57.56 45.6888C56.9813 44.8596 56.6698 43.8734 56.6674 42.8622V25.3572C56.6674 18.7812 54.0551 12.4746 49.4052 7.82469C44.7553 3.17479 38.4487 0.5625 31.8728 0.5625C25.2968 0.5625 18.9902 3.17479 14.3403 7.82469C9.69038 12.4746 7.0781 18.7812 7.0781 25.3572V42.8622C7.0757 43.8734 6.76425 44.8596 6.18549 45.6888L1.9456 51.7883C1.30361 52.4996 0.881454 53.3817 0.73017 54.3278C0.578886 55.274 0.704957 56.2437 1.09314 57.1198C1.48132 57.9958 2.11498 58.7406 2.9175 59.2641C3.72003 59.7876 4.65703 60.0674 5.61521 60.0697H19.7234C20.2925 62.8722 21.8129 65.3918 24.0271 67.2016C26.2413 69.0114 29.0131 70 31.8728 70C34.7325 70 37.5042 69.0114 39.7184 67.2016C41.9326 65.3918 43.4531 62.8722 44.0222 60.0697H58.1303C59.0885 60.0674 60.0255 59.7876 60.828 59.2641C61.6305 58.7406 62.2642 57.9958 62.6524 57.1198C63.0406 56.2437 63.1666 55.274 63.0154 54.3278C62.8641 53.3817 62.4419 52.4996 61.7999 51.7883ZM31.8728 65.0286C30.3381 65.0243 28.8424 64.5454 27.5906 63.6576C26.3388 62.7698 25.3922 61.5166 24.8807 60.0697H38.8649C38.3533 61.5166 37.4068 62.7698 36.155 63.6576C34.9032 64.5454 33.4074 65.0243 31.8728 65.0286ZM5.61521 55.1108C5.72728 55.0068 5.8271 54.8903 5.91275 54.7636L10.2518 48.5154C11.4093 46.8571 12.0322 44.8845 12.037 42.8622V25.3572C12.037 20.0964 14.1269 15.0511 17.8468 11.3312C21.5667 7.61126 26.612 5.52143 31.8728 5.52143C37.1335 5.52143 42.1788 7.61126 45.8988 11.3312C49.6187 15.0511 51.7085 20.0964 51.7085 25.3572V42.8622C51.7133 44.8845 52.3362 46.8571 53.4937 48.5154L57.8328 54.7636C57.9184 54.8903 58.0183 55.0068 58.1303 55.1108H5.61521Z" fill="#9BA0AA"/>
</svg>
