<svg width="63" height="44" viewBox="0 0 63 44" fill="none" xmlns="http://www.w3.org/2000/svg">
<path d="M56.9247 0H5.48525C2.4669 0 0 2.45605 0 5.48525V38.3968C0 41.4271 2.46849 43.882 5.48525 43.882H56.9247C59.9431 43.882 62.41 41.426 62.41 38.3968V5.48525C62.41 2.45532 59.9419 0 56.9247 0ZM56.0825 3.65684C54.309 5.43613 33.4777 26.3353 32.6219 27.1939C31.9071 27.9109 30.5033 27.9114 29.7881 27.1939L6.32755 3.65684H56.0825ZM3.65684 37.7245V6.1575L19.3892 21.941L3.65684 37.7245ZM6.32755 40.2252L21.9708 24.531L27.1982 29.7755C29.3404 31.9247 33.0705 31.9238 35.2119 29.7755L40.4394 24.5312L56.0825 40.2252H6.32755ZM58.7532 37.7245L43.0208 21.941L58.7532 6.1575V37.7245Z" fill="#9BA0AA"/>
</svg>
